{
    "accessors" : [
        {
            "bufferView" : 0,
            "componentType" : 5123,
            "count" : 31632,
            "max" : [
                31631
            ],
            "min" : [
                0
            ],
            "type" : "SCALAR"
        },
        {
            "bufferView" : 1,
            "componentType" : 5126,
            "count" : 31632,
            "max" : [
                0.3044906556606293,
                0.3530312776565552,
                0.5196878910064697
            ],
            "min" : [
                -0.29550930857658386,
                -0.24696871638298035,
                -0.7761321067810059
            ],
            "type" : "VEC3"
        },
        {
            "bufferView" : 2,
            "componentType" : 5126,
            "count" : 31632,
            "max" : [
                0.999969482421875,
                0.999969482421875,
                1.0
            ],
            "min" : [
                -0.999969482421875,
                -0.999969482421875,
                -0.9993896484375
            ],
            "type" : "VEC3"
        }
    ],
    "asset" : {
        "generator" : "Khronos Blender glTF 2.0 exporter",
        "version" : "2.0"
    },
    "bufferViews" : [
        {
            "buffer" : 0,
            "byteLength" : 63264,
            "byteOffset" : 0,
            "target" : 34963
        },
        {
            "buffer" : 0,
            "byteLength" : 379584,
            "byteOffset" : 63264,
            "target" : 34962
        },
        {
            "buffer" : 0,
            "byteLength" : 379584,
            "byteOffset" : 442848,
            "target" : 34962
        }
    ],
    "buffers" : [
        {
            "byteLength" : 822432,
            "uri" : "data:application/octet-stream;base64,"
        }
    ],
    "meshes" : [
        {
            "name" : "meshes[0]",
            "primitives" : [
                {
                    "attributes" : {
                        "NORMAL" : 2,
                        "POSITION" : 1
                    },
                    "indices" : 0
                }
            ]
        }
    ],
    "nodes" : [
        {
            "children" : [
                2
            ],
            "name" : "1.gltf"
        },
        {
            "mesh" : 0,
            "name" : "3DSMesh_0_0"
        },
        {
            "children" : [
                1
            ],
            "name" : "nodes[1]"
        }
    ],
    "scene" : 0,
    "scenes" : [
        {
            "name" : "Scene",
            "nodes" : [
                0
            ]
        }
    ]
}
