{
    "accessors" : [
        {
            "bufferView" : 0,
            "componentType" : 5123,
            "count" : 7608,
            "max" : [
                7607
            ],
            "min" : [
                0
            ],
            "type" : "SCALAR"
        },
        {
            "bufferView" : 1,
            "componentType" : 5126,
            "count" : 7608,
            "max" : [
                0.6329450011253357,
                0.03999999910593033,
                0.3178189992904663
            ],
            "min" : [
                -0.6170549988746643,
                -0.03999999910593033,
                -0.4321810007095337
            ],
            "type" : "VEC3"
        },
        {
            "bufferView" : 2,
            "componentType" : 5126,
            "count" : 7608,
            "max" : [
                0.999969482421875,
                1.0,
                0.99993896484375
            ],
            "min" : [
                -0.999969482421875,
                -1.0,
                -0.999969482421875
            ],
            "type" : "VEC3"
        }
    ],
    "asset" : {
        "generator" : "Khronos Blender glTF 2.0 exporter",
        "version" : "2.0"
    },
    "bufferViews" : [
        {
            "buffer" : 0,
            "byteLength" : 15216,
            "byteOffset" : 0,
            "target" : 34963
        },
        {
            "buffer" : 0,
            "byteLength" : 91296,
            "byteOffset" : 15216,
            "target" : 34962
        },
        {
            "buffer" : 0,
            "byteLength" : 91296,
            "byteOffset" : 106512,
            "target" : 34962
        }
    ],
    "buffers" : [
        {
            "byteLength" : 197808,
            "uri" : "data:application/octet-stream;base64,"
        }
    ],
    "meshes" : [
        {
            "name" : "meshes[0]",
            "primitives" : [
                {
                    "attributes" : {
                        "NORMAL" : 2,
                        "POSITION" : 1
                    },
                    "indices" : 0
                }
            ]
        }
    ],
    "nodes" : [
        {
            "children" : [
                2
            ],
            "name" : "2.gltf"
        },
        {
            "mesh" : 0,
            "name" : "3DSMesh_0_0",
            "translation" : [
                -0.02505839243531227,
                0.3214722275733948,
                -0.0
            ]
        },
        {
            "children" : [
                1
            ],
            "name" : "nodes[1]"
        }
    ],
    "scene" : 0,
    "scenes" : [
        {
            "name" : "Scene",
            "nodes" : [
                0
            ]
        }
    ]
}
