{
    "accessors" : [
        {
            "bufferView" : 0,
            "componentType" : 5123,
            "count" : 6168,
            "max" : [
                6167
            ],
            "min" : [
                0
            ],
            "type" : "SCALAR"
        },
        {
            "bufferView" : 1,
            "componentType" : 5126,
            "count" : 6168,
            "max" : [
                0.29974400997161865,
                0.30134499073028564,
                6.344409942626953
            ],
            "min" : [
                -0.30025601387023926,
                -0.2986550033092499,
                -4.655590057373047
            ],
            "type" : "VEC3"
        },
        {
            "bufferView" : 2,
            "componentType" : 5126,
            "count" : 6168,
            "max" : [
                1.0,
                1.0,
                1.0
            ],
            "min" : [
                -1.0,
                -1.0,
                -1.0
            ],
            "type" : "VEC3"
        },
        {
            "bufferView" : 3,
            "componentType" : 5126,
            "count" : 6168,
            "max" : [
                1.0,
                1.0,
                0.995418131351471,
                1.0
            ],
            "min" : [
                -1.0,
                -1.0,
                -0.995417058467865,
                1.0
            ],
            "type" : "VEC4"
        },
        {
            "bufferView" : 4,
            "componentType" : 5126,
            "count" : 6168,
            "max" : [
                1.0,
                1.0
            ],
            "min" : [
                0.0,
                0.0
            ],
            "type" : "VEC2"
        }
    ],
    "asset" : {
        "generator" : "Khronos Blender glTF 2.0 exporter",
        "version" : "2.0"
    },
    "bufferViews" : [
        {
            "buffer" : 0,
            "byteLength" : 12336,
            "byteOffset" : 0,
            "target" : 34963
        },
        {
            "buffer" : 0,
            "byteLength" : 74016,
            "byteOffset" : 12336,
            "target" : 34962
        },
        {
            "buffer" : 0,
            "byteLength" : 74016,
            "byteOffset" : 86352,
            "target" : 34962
        },
        {
            "buffer" : 0,
            "byteLength" : 98688,
            "byteOffset" : 160368,
            "target" : 34962
        },
        {
            "buffer" : 0,
            "byteLength" : 49344,
            "byteOffset" : 259056,
            "target" : 34962
        }
    ],
    "buffers" : [
        {
            "byteLength" : 308400,
            "uri" : "data:application/octet-stream;base64,"
        }
    ],
    "meshes" : [
        {
            "name" : "meshes[0].001",
            "primitives" : [
                {
                    "attributes" : {
                        "NORMAL" : 2,
                        "POSITION" : 1,
                        "TANGENT" : 3,
                        "TEXCOORD_0" : 4
                    },
                    "indices" : 0
                }
            ]
        }
    ],
    "nodes" : [
        {
            "children" : [
                2
            ],
            "name" : "3.gltf"
        },
        {
            "mesh" : 0,
            "name" : "3DSMesh_0_0"
        },
        {
            "children" : [
                1
            ],
            "name" : "nodes[1]"
        }
    ],
    "scene" : 0,
    "scenes" : [
        {
            "name" : "Scene",
            "nodes" : [
                0
            ]
        }
    ]
}
